<svg width="4216" height="2164" xmlns="http://www.w3.org/2000/svg" xmlns:xlink="http://www.w3.org/1999/xlink" xml:space="preserve" overflow="hidden"><defs><clipPath id="clip0"><rect x="2112" y="345" width="4216" height="2164"/></clipPath></defs><g clip-path="url(#clip0)" transform="translate(-2112 -345)"><rect x="2112" y="345" width="4216" height="2164" fill="#FFFFFF"/><g><path d="M3304.61 395.5 3304.61 2292.5M3898.63 395.5 3898.63 2292.5M4493.65 395.5 4493.65 2292.5M5087.67 395.5 5087.67 2292.5M5682.69 395.5 5682.69 2292.5M6277.5 395.5 6277.5 2292.5" stroke="#D9D9D9" stroke-width="3.4375" stroke-linejoin="round" stroke-miterlimit="10" fill="none"/></g><g><path d="M3230.11 2198.07 2710 2198.07 2710 2072.07 3230.11 2072.07ZM3245.11 1882.06 2710 1882.06 2710 1755.06 3245.11 1755.06ZM3007.1 1566.05 2710 1566.05 2710 1439.05 3007.1 1439.05ZM2828.09 1249.04 2710 1249.04 2710 1123.04 2828.09 1123.04ZM3037.1 933.031 2710 933.031 2710 807.026 3037.1 807.026ZM2828.09 617.02 2710 617.02 2710 490.016 2828.09 490.016Z" fill="#C7884F"/></g><g><path d="M3807.12 2198.07 3230.11 2198.07 3230.11 2072.07 3807.12 2072.07ZM3833.13 1882.06 3245.11 1882.06 3245.11 1755.06 3833.13 1755.06ZM3554.12 1566.05 3007.1 1566.05 3007.1 1439.05 3554.12 1439.05ZM3364.11 1249.04 2828.09 1249.04 2828.09 1123.04 3364.11 1123.04ZM3601.12 933.031 3037.1 933.031 3037.1 807.026 3601.12 807.026ZM3417.11 617.02 2828.09 617.02 2828.09 490.016 3417.11 490.016Z" fill="#F1A661"/></g><g><path d="M5733.19 2198.07 3807.12 2198.07 3807.12 2072.07 5733.19 2072.07ZM5617.18 1882.06 3833.13 1882.06 3833.13 1755.06 5617.18 1755.06ZM4624.15 1566.05 3554.12 1566.05 3554.12 1439.05 4624.15 1439.05ZM4594.15 933.031 3601.12 933.031 3601.12 807.026 4594.15 807.026Z" fill="#F6CBAF"/></g><g><path d="M0 0 0.000360892 1897" stroke="#D9D9D9" stroke-width="3.4375" stroke-linejoin="round" stroke-miterlimit="10" fill="none" fill-rule="evenodd" transform="matrix(1 0 0 -1 2709.5 2292.5)"/></g><g><text fill="#595959" font-family="Times New Roman,Times New Roman_MSFontService,sans-serif" font-weight="400" font-size="101" transform="matrix(1 0 0 1 2360.5 2166)">GPTQ</text></g><g><text fill="#595959" font-family="Times New Roman,Times New Roman_MSFontService,sans-serif" font-weight="400" font-size="101" transform="matrix(1 0 0 1 2383 1850)">AWQ</text></g><g><text fill="#595959" font-family="Times New Roman,Times New Roman_MSFontService,sans-serif" font-weight="400" font-size="101" transform="matrix(1 0 0 1 2181.36 1534)">MINILLM</text></g><g><text fill="#595959" font-family="Times New Roman,Times New Roman_MSFontService,sans-serif" font-weight="400" font-size="101" transform="matrix(1 0 0 1 2142.17 1218)">LLMPruner</text></g><g><text fill="#595959" font-family="Times New Roman,Times New Roman_MSFontService,sans-serif" font-weight="400" font-size="101" transform="matrix(1 0 0 1 2164.51 901)">SparseGPT</text></g><g><text fill="#595959" font-family="Times New Roman,Times New Roman_MSFontService,sans-serif" font-weight="400" font-size="101" transform="matrix(1 0 0 1 2349.31 585)">LORD</text></g><g><rect x="3253" y="2387" width="50.0002" height="50.9998" fill="#C7884F"/></g><g><text fill="#595959" font-family="Times New Roman,Times New Roman_MSFontService,sans-serif" font-weight="400" font-size="101" transform="matrix(1 0 0 1 3326.31 2444)">Compress Ratio</text></g><g><rect x="4091" y="2387" width="50" height="50.9998" fill="#F1A661"/></g><g><text fill="#595959" font-family="Times New Roman,Times New Roman_MSFontService,sans-serif" font-weight="400" font-size="101" transform="matrix(1 0 0 1 4164.32 2444)">Performance</text></g><g><rect x="4797" y="2387" width="50" height="50.9998" fill="#F6CBAF"/></g><g><text fill="#595959" font-family="Times New Roman,Times New Roman_MSFontService,sans-serif" font-weight="400" font-size="101" transform="matrix(1 0 0 1 4870.44 2444)">Speedup</text></g></g></svg>