<svg width="3733" height="2393" xmlns="http://www.w3.org/2000/svg" xmlns:xlink="http://www.w3.org/1999/xlink" xml:space="preserve" overflow="hidden"><defs><clipPath id="clip0"><rect x="1201" y="331" width="3733" height="2393"/></clipPath></defs><g clip-path="url(#clip0)" transform="translate(-1201 -331)"><rect x="1202" y="332" width="3732" height="2392" fill="#FFFFFF"/><g><path d="M1443.5 2645.5 4883.5 2645.5M1443.5 2396.58 4883.5 2396.58M1443.5 2148.57 4883.5 2148.57M1443.5 1900.56 4883.5 1900.56M1443.5 1651.55 4883.5 1651.55M1443.5 1403.55 4883.5 1403.55M1443.5 1155.54 4883.5 1155.54M1443.5 907.53 4883.5 907.53M1443.5 658.522 4883.5 658.522M1443.5 410.5 4883.5 410.5" stroke="#D9D9D9" stroke-width="3.4375" stroke-linejoin="round" stroke-miterlimit="10" fill="none"/></g><g><path d="M1451.5 1975.56 1466.55 2049.5 1481.55 1231.54 1497.55 1206.54 1512.55 742.525 1527.55 738.524 1543.55 687.523 1558.55 1698.56 1573.55 1760.56 1589.55 1137.54 1604.55 1201.54 1619.55 765.525 1635.55 733.524 1650.55 636.521 1666.55 1420.55 1681.56 1448.55 1696.56 1050.53 1712.56 1027.53 1727.56 690.523 1742.56 676.522 1758.56 632.5 1773.56 1221.54 1788.56 1234.54 1804.56 1037.53 1819.56 1038.53 1834.56 652.522 1850.56 643.521 1865.56 654.522 1881.56 1212.54 1896.56 1217.54 1911.56 1029.53 1927.56 1030.53 1942.56 647.521 1957.56 635.521 1973.56 652.522 1988.57 1192.54 2003.57 1199.54 2019.57 1039.53 2034.57 1046.53 2049.57 652.522 2065.57 635.521 2080.57 662.522 2096.57 1183.54 2111.57 1180.54 2126.57 1049.53 2142.57 1062.54 2157.57 658.522 2172.57 639.521 2188.57 665.522 2203.57 1183.54 2218.57 1179.54 2234.57 1063.54 2249.57 1063.54 2264.57 664.522 2280.57 643.521 2295.58 670.522 2310.58 1174.54 2326.58 1167.54 2341.58 1071.54 2357.58 1068.54 2372.58 667.522 2387.58 644.521 2403.58 669.522 2418.58 1156.54 2433.58 1154.54 2449.58 1075.54 2464.58 1067.54 2479.58 669.522 2495.58 646.521 2510.58 668.522 2525.58 1180.54 2541.58 1173.54 2556.58 1074.54 2572.58 1098.54 2587.58 672.522 2602.59 647.521 2618.59 673.522 2633.59 1190.54 2648.59 1175.54 2664.59 1089.54 2679.59 1111.54 2694.59 677.522 2710.59 653.522 2725.59 667.522 2740.59 1157.54 2756.59 1154.54 2771.59 1074.54 2787.59 1078.54 2802.59 675.522 2817.59 654.522 2833.59 668.522 2848.59 1149.54 2863.59 1135.54 2879.59 1051.53 2894.6 1086.54 2909.6 675.522 2925.6 651.522 2940.6 658.522 2955.6 1160.54 2971.6 1150.54 2986.6 1058.53 3001.6 1086.54 3017.6 677.522 3032.6 655.522 3048.6 658.522 3063.6 1144.54 3078.6 1137.54 3094.6 1045.53 3109.6 1067.54 3124.6 671.522 3140.6 647.521 3155.6 646.521 3170.6 1146.54 3186.6 1140.54 3201.61 1027.53 3216.61 1044.53 3232.61 677.522 3247.61 656.522 3263.61 642.521 3278.61 1117.54 3293.61 1114.54 3309.61 1015.53 3324.61 1023.53 3339.61 677.522 3355.61 658.522 3370.61 646.521 3385.61 1097.54 3401.61 1091.54 3416.61 1012.53 3431.61 1006.53 3447.61 673.522 3462.61 655.522 3478.61 643.521 3493.61 1109.54 3508.62 1109.54 3524.62 1018.53 3539.62 1006.53 3554.62 669.522 3570.62 653.522 3585.62 640.521 3600.62 1124.54 3616.62 1120.54 3631.62 1013.53 3646.62 993.533 3662.62 669.522 3677.62 655.522 3692.62 636.521 3708.62 1115.54 3723.62 1113.54 3739.62 1017.53 3754.62 984.532 3769.62 668.522 3785.62 655.522 3800.62 638.521 3815.63 1109.54 3831.63 1104.54 3846.63 1003.53 3861.63 983.532 3877.63 666.522 3892.63 654.522 3907.63 641.521 3923.63 1080.54 3938.63 1078.54 3954.63 1003.53 3969.63 987.533 3984.63 661.522 4000.63 650.522 4015.63 645.521 4030.63 1132.54 4046.63 1124.54 4061.63 1007.53 4076.63 983.532 4092.63 659.522 4107.63 648.521 4122.64 648.521 4138.64 1083.54 4153.64 1075.54 4169.64 1000.53 4184.64 995.533 4199.64 655.522 4215.64 645.521 4230.64 650.522 4245.64 1111.54 4261.64 1102.54 4276.64 1007.53 4291.64 994.533 4307.64 652.522 4322.64 641.521 4337.64 649.521 4353.64 1050.53 4368.64 1043.53 4383.64 991.533 4399.64 992.533 4414.65 648.521 4430.65 637.521 4445.65 648.521 4460.65 1074.54 4476.65 1064.54 4491.65 994.533 4506.65 1000.53 4522.65 646.521 4537.65 635.521 4552.65 641.521 4568.65 1100.54 4583.65 1092.54 4598.65 1001.53 4614.65 995.533 4629.65 644.521 4645.65 636.521 4660.65 635.521 4675.65 1061.54 4691.65 1055.53 4706.65 989.533 4721.66 991.533 4737.66 645.521 4752.66 638.521 4767.66 632.5 4783.66 1106.54 4798.66 1102.54 4813.66 1004.53 4829.66 1016.53 4844.66 651.522 4860.66 644.521 4875.5 641.521" stroke="#F1A661" stroke-width="9.16667" stroke-linecap="round" stroke-linejoin="round" stroke-miterlimit="10" stroke-opacity="0.8" fill="none"/></g><g><path d="M1451.5 1119.54 1466.55 1112.54 1481.55 1070.54 1497.55 1074.54 1512.55 621.521 1527.55 608.52 1543.55 1099.54 1558.55 1112.54 1573.55 1064.54 1589.55 1074.54 1604.55 621.521 1619.55 624.521 1635.55 1119.54 1650.55 1141.5 1666.55 1077.54 1681.56 1086.54 1696.56 621.521 1712.56 614.52 1727.56 1093.54 1742.56 1106.54 1758.56 1083.54 1773.56 1070.54 1788.56 621.521 1804.56 611.52 1819.56 1096.54 1834.56 1096.54 1850.56 1067.54 1865.56 1061.53 1881.56 618.52 1896.56 621.521 1911.56 1109.54 1927.56 1106.54 1942.56 1070.54 1957.56 1064.54 1973.56 614.52 1988.57 621.521 2003.57 1112.54 2019.57 1119.54 2034.57 1048.53 2049.57 1048.53 2065.57 611.52 2080.57 631.521 2096.57 1132.54 2111.57 1132.54 2126.57 1035.53 2142.57 1022.53 2157.57 624.521 2172.57 614.52 2188.57 1116.54 2203.57 1112.54 2218.57 1044.53 2234.57 1025.53 2249.57 624.521 2264.57 598.52 2280.57 1080.54 2295.58 1083.54 2310.58 1022.53 2326.58 993.533 2341.58 631.521 2357.58 585.5 2372.58 1077.54 2387.58 1077.54 2403.58 1041.53 2418.58 1025.53 2433.58 637.521 2449.58 592.52 2464.58 1074.54 2479.58 1067.54 2495.58 1048.53 2510.58 1022.53 2525.58 627.521 2541.5 792.526" stroke="#B46060" stroke-width="9.16667" stroke-linecap="round" stroke-linejoin="round" stroke-miterlimit="10" fill="none"/></g><g><text fill="#595959" font-family="Times New Roman,Times New Roman_MSFontService,sans-serif" font-weight="400" font-size="101" transform="matrix(1 0 0 1 1307.23 2677)">0</text></g><g><text fill="#595959" font-family="Times New Roman,Times New Roman_MSFontService,sans-serif" font-weight="400" font-size="101" transform="matrix(1 0 0 1 1231.61 2428)">0.1</text></g><g><text fill="#595959" font-family="Times New Roman,Times New Roman_MSFontService,sans-serif" font-weight="400" font-size="101" transform="matrix(1 0 0 1 1231.61 2180)">0.2</text></g><g><text fill="#595959" font-family="Times New Roman,Times New Roman_MSFontService,sans-serif" font-weight="400" font-size="101" transform="matrix(1 0 0 1 1231.61 1932)">0.3</text></g><g><text fill="#595959" font-family="Times New Roman,Times New Roman_MSFontService,sans-serif" font-weight="400" font-size="101" transform="matrix(1 0 0 1 1231.61 1683)">0.4</text></g><g><text fill="#595959" font-family="Times New Roman,Times New Roman_MSFontService,sans-serif" font-weight="400" font-size="101" transform="matrix(1 0 0 1 1231.61 1435)">0.5</text></g><g><text fill="#595959" font-family="Times New Roman,Times New Roman_MSFontService,sans-serif" font-weight="400" font-size="101" transform="matrix(1 0 0 1 1231.61 1187)">0.6</text></g><g><text fill="#595959" font-family="Times New Roman,Times New Roman_MSFontService,sans-serif" font-weight="400" font-size="101" transform="matrix(1 0 0 1 1231.61 939)">0.7</text></g><g><text fill="#595959" font-family="Times New Roman,Times New Roman_MSFontService,sans-serif" font-weight="400" font-size="101" transform="matrix(1 0 0 1 1231.61 690)">0.8</text></g><g><text fill="#595959" font-family="Times New Roman,Times New Roman_MSFontService,sans-serif" font-weight="400" font-size="101" transform="matrix(1 0 0 1 1231.61 442)">0.9</text></g><g><path d="M4200.5 1827.5 4288.5 1827.5" stroke="#F1A661" stroke-width="9.16667" stroke-linecap="round" stroke-linejoin="round" stroke-miterlimit="10" stroke-opacity="0.8" fill="none" fill-rule="evenodd"/></g><g><text fill="#595959" font-family="Times New Roman,Times New Roman_MSFontService,sans-serif" font-weight="400" font-size="101" transform="matrix(1 0 0 1 4297.33 1859)">LLaMA2-7B</text></g><g><path d="M4200.5 1965.5 4288.5 1965.5" stroke="#B46060" stroke-width="9.16667" stroke-linecap="round" stroke-linejoin="round" stroke-miterlimit="10" fill="none" fill-rule="evenodd"/></g><g><text fill="#595959" font-family="Times New Roman,Times New Roman_MSFontService,sans-serif" font-weight="400" font-size="101" transform="matrix(1 0 0 1 4297.33 1997)">BERT</text></g></g></svg>